{
    "asset" : {
        "generator" : "Khronos glTF Blender I/O v1.1.46",
        "version" : "2.0"
    },
    "scene" : 0,
    "scenes" : [
        {
            "name" : "Scene",
            "nodes" : [
                84
            ]
        }
    ],
    "nodes" : [
        {
            "name" : "Bone.064",
            "rotation" : [
                -0.07383344322443008,
                -0.06279613822698593,
                -0.04544518515467644,
                0.9942535161972046
            ],
            "translation" : [
                4.470348358154297e-08,
                3.356318235397339,
                -1.1920928955078125e-07
            ]
        },
        {
            "children" : [
                0
            ],
            "name" : "Bone.063",
            "rotation" : [
                0.022087205201387405,
                -0.04858950525522232,
                -0.1268330067396164,
                0.9904870390892029
            ],
            "scale" : [
                1,
                1,
                0.9999998807907104
            ],
            "translation" : [
                -3.725290298461914e-06,
                4.562325954437256,
                -5.185604095458984e-06
            ]
        },
        {
            "children" : [
                1
            ],
            "name" : "Bone.062",
            "rotation" : [
                0.28599199652671814,
                0.46641990542411804,
                0.3054782450199127,
                0.7793228626251221
            ],
            "scale" : [
                0.9999999403953552,
                1.0000001192092896,
                1.0000001192092896
            ],
            "translation" : [
                -0.6642619371414185,
                2.8565657138824463,
                1.7201061248779297
            ]
        },
        {
            "name" : "Bone.067",
            "rotation" : [
                0.015824133530259132,
                0.13542138040065765,
                -0.061743881553411484,
                0.9887357354164124
            ],
            "translation" : [
                4.76837158203125e-06,
                2.571413516998291,
                7.152557373046875e-07
            ]
        },
        {
            "children" : [
                3
            ],
            "name" : "Bone.066",
            "rotation" : [
                0.008273274637758732,
                -0.04076698049902916,
                -0.05712002143263817,
                0.9975003600120544
            ],
            "translation" : [
                2.5033950805664062e-06,
                3.0982441902160645,
                -1.3113021850585938e-06
            ]
        },
        {
            "children" : [
                4
            ],
            "name" : "Bone.065",
            "rotation" : [
                0.09936268627643585,
                0.17009155452251434,
                0.10819658637046814,
                0.974417507648468
            ],
            "scale" : [
                1,
                1,
                1.0000001192092896
            ],
            "translation" : [
                -0.5693678855895996,
                10.766175270080566,
                2.919189453125
            ]
        },
        {
            "name" : "Bone.070",
            "rotation" : [
                0.016289973631501198,
                0.19499073922634125,
                -0.022251920774579048,
                0.9804173111915588
            ],
            "scale" : [
                0.9999999403953552,
                0.9999998807907104,
                1
            ],
            "translation" : [
                -1.3709068298339844e-06,
                1.9179019927978516,
                -5.364418029785156e-07
            ]
        },
        {
            "children" : [
                6
            ],
            "name" : "Bone.069",
            "rotation" : [
                -0.05166999250650406,
                -0.11730929464101791,
                0.09277404099702835,
                0.98740154504776
            ],
            "scale" : [
                1.0000001192092896,
                0.9999999403953552,
                1.0000001192092896
            ],
            "translation" : [
                -2.384185791015625e-06,
                3.8931398391723633,
                -1.7881393432617188e-07
            ]
        },
        {
            "children" : [
                7
            ],
            "name" : "Bone.068",
            "rotation" : [
                0.06199146807193756,
                0.093327596783638,
                -0.014940302819013596,
                0.9935913681983948
            ],
            "scale" : [
                1,
                1.0000001192092896,
                1
            ],
            "translation" : [
                -0.27927839756011963,
                12.466773986816406,
                0.477055162191391
            ]
        },
        {
            "name" : "Bone.073",
            "rotation" : [
                0.019723469391465187,
                0.22640101611614227,
                -0.021000411361455917,
                0.9736080169677734
            ],
            "translation" : [
                6.198883056640625e-06,
                2.7880871295928955,
                -1.6689300537109375e-06
            ]
        },
        {
            "children" : [
                9
            ],
            "name" : "Bone.072",
            "rotation" : [
                -0.03235272690653801,
                -0.12067145109176636,
                0.026582902297377586,
                0.9918090105056763
            ],
            "scale" : [
                1,
                0.9999999403953552,
                1
            ],
            "translation" : [
                -3.0994415283203125e-06,
                3.3303422927856445,
                1.1920928955078125e-06
            ]
        },
        {
            "children" : [
                10
            ],
            "name" : "Bone.071",
            "rotation" : [
                -0.08378195762634277,
                -0.17696064710617065,
                0.0070598917081952095,
                0.9806201457977295
            ],
            "scale" : [
                0.9999998807907104,
                1,
                1.0000001192092896
            ],
            "translation" : [
                0.08609366416931152,
                11.156088829040527,
                -1.6800638437271118
            ]
        },
        {
            "name" : "Bone.076",
            "rotation" : [
                0.03336486965417862,
                0.24647997319698334,
                0.06077677011489868,
                0.9666646718978882
            ],
            "scale" : [
                0.9999998807907104,
                0.9999999403953552,
                0.9999999403953552
            ],
            "translation" : [
                3.814697265625e-06,
                1.738987684249878,
                -4.76837158203125e-07
            ]
        },
        {
            "children" : [
                12
            ],
            "name" : "Bone.075",
            "rotation" : [
                -0.003245340893045068,
                -0.03421935811638832,
                -0.10699446499347687,
                0.9936652779579163
            ],
            "scale" : [
                1,
                1,
                1.0000001192092896
            ],
            "translation" : [
                -5.841255187988281e-06,
                2.4279603958129883,
                5.960464477539062e-07
            ]
        },
        {
            "children" : [
                13
            ],
            "name" : "Bone.074",
            "rotation" : [
                -0.14604921638965607,
                -0.2603793144226074,
                0.09462723135948181,
                0.9496936202049255
            ],
            "scale" : [
                1,
                1.0000001192092896,
                1
            ],
            "translation" : [
                0.29062604904174805,
                10.79451847076416,
                -3.837770938873291
            ]
        },
        {
            "children" : [
                2,
                5,
                8,
                11,
                14
            ],
            "name" : "Bone.046",
            "rotation" : [
                0.040764760226011276,
                -0.0022740312851965427,
                0.053656622767448425,
                0.9977244734764099
            ],
            "scale" : [
                0.9999998807907104,
                0.9999998211860657,
                0.9999999403953552
            ],
            "translation" : [
                5.841255187988281e-06,
                25.269004821777344,
                -1.6093254089355469e-06
            ]
        },
        {
            "children" : [
                15
            ],
            "name" : "Bone.008",
            "rotation" : [
                -0.04151305928826332,
                0.002040054416283965,
                -0.048902519047260284,
                0.9979383945465088
            ],
            "scale" : [
                1.0000001192092896,
                1,
                1.0000001192092896
            ],
            "translation" : [
                1.1920928955078125e-06,
                22.23794174194336,
                -9.5367431640625e-07
            ]
        },
        {
            "children" : [
                16
            ],
            "name" : "Bone.007",
            "rotation" : [
                0.023772958666086197,
                0.0574919693171978,
                0.31249263882637024,
                0.947880744934082
            ],
            "scale" : [
                1.0000001192092896,
                1,
                1
            ],
            "translation" : [
                -1.6702616676411708e-06,
                22.493419647216797,
                -1.7881393432617188e-07
            ]
        },
        {
            "name" : "Bone.032",
            "rotation" : [
                -0.026548517867922783,
                -6.666296314961073e-08,
                0.03867954760789871,
                0.998898983001709
            ],
            "scale" : [
                1,
                0.9999999403953552,
                1
            ],
            "translation" : [
                12.601081848144531,
                6.87645149230957,
                0.6931459903717041
            ]
        },
        {
            "children" : [
                17,
                18
            ],
            "name" : "Bone.003",
            "rotation" : [
                -0.03283648192882538,
                -0.037983253598213196,
                0.755545437335968,
                0.6531692743301392
            ],
            "scale" : [
                0.9999998807907104,
                0.9999999403953552,
                0.9999999403953552
            ],
            "translation" : [
                -1.3803778564636104e-08,
                13.853164672851562,
                8.881784197001252e-16
            ]
        },
        {
            "name" : "Bone.049",
            "rotation" : [
                -0.10177988559007645,
                0.05291111767292023,
                -0.017482491210103035,
                0.9932450652122498
            ],
            "scale" : [
                1,
                0.9999999403953552,
                0.9999998807907104
            ],
            "translation" : [
                4.470348358154297e-08,
                3.0361111164093018,
                2.1457672119140625e-06
            ]
        },
        {
            "children" : [
                20
            ],
            "name" : "Bone.048",
            "rotation" : [
                -0.05110585689544678,
                0.014347038231790066,
                -0.03101346269249916,
                0.9981085658073425
            ],
            "scale" : [
                0.9999998211860657,
                0.9999998211860657,
                0.9999998211860657
            ],
            "translation" : [
                2.3245811462402344e-06,
                4.686176300048828,
                2.6226043701171875e-06
            ]
        },
        {
            "children" : [
                21
            ],
            "name" : "Bone.047",
            "rotation" : [
                0.40178388357162476,
                0.0207621268928051,
                -0.03025892935693264,
                0.9149990677833557
            ],
            "scale" : [
                1,
                0.9999999403953552,
                0.9999998807907104
            ],
            "translation" : [
                0.3947939872741699,
                3.298323392868042,
                1.6137357950210571
            ]
        },
        {
            "name" : "Bone.052",
            "rotation" : [
                0.017779503017663956,
                0.1495877355337143,
                -0.0680469423532486,
                0.9862439036369324
            ],
            "scale" : [
                1,
                0.9999997615814209,
                0.9999998807907104
            ],
            "translation" : [
                -9.75094735622406e-07,
                2.762420177459717,
                2.384185791015625e-07
            ]
        },
        {
            "children" : [
                23
            ],
            "name" : "Bone.051",
            "rotation" : [
                -0.02059919387102127,
                -0.02986392378807068,
                0.054129257798194885,
                0.9978746771812439
            ],
            "scale" : [
                0.9999998807907104,
                0.9999999403953552,
                0.9999999403953552
            ],
            "translation" : [
                -2.8312206268310547e-06,
                3.277878761291504,
                -2.0265579223632812e-06
            ]
        },
        {
            "children" : [
                24
            ],
            "name" : "Bone.050",
            "rotation" : [
                0.12320661544799805,
                0.03851565346121788,
                -0.04580364748835564,
                0.9905749559402466
            ],
            "scale" : [
                0.9999999403953552,
                1,
                0.9999998807907104
            ],
            "translation" : [
                0.5726214647293091,
                11.003398895263672,
                2.7834811210632324
            ]
        },
        {
            "name" : "Bone.055",
            "rotation" : [
                0.04041995480656624,
                0.17648573219776154,
                -0.12341148406267166,
                0.9756990671157837
            ],
            "scale" : [
                0.9999999403953552,
                1.0000001192092896,
                0.9999999403953552
            ],
            "translation" : [
                4.034489393234253e-06,
                2.398557662963867,
                2.086162567138672e-07
            ]
        },
        {
            "children" : [
                26
            ],
            "name" : "Bone.054",
            "rotation" : [
                -0.04604098200798035,
                -0.04500448331236839,
                0.0680936798453331,
                0.9955993890762329
            ],
            "scale" : [
                0.9999999403953552,
                0.9999999403953552,
                1
            ],
            "translation" : [
                -3.5762786865234375e-06,
                3.4843811988830566,
                1.4454126358032227e-06
            ]
        },
        {
            "children" : [
                27
            ],
            "name" : "Bone.053",
            "rotation" : [
                0.0650545060634613,
                0.05157838389277458,
                -0.038640815764665604,
                0.9957984089851379
            ],
            "scale" : [
                0.9999998807907104,
                1.0000001192092896,
                0.9999999403953552
            ],
            "translation" : [
                0.58417147397995,
                12.831068992614746,
                0.32569265365600586
            ]
        },
        {
            "name" : "Bone.058",
            "rotation" : [
                0.02080586552619934,
                0.1916147619485855,
                0.044933173805475235,
                0.980220377445221
            ],
            "scale" : [
                1,
                1.000000238418579,
                1
            ],
            "translation" : [
                4.872679710388184e-06,
                2.653526544570923,
                -9.5367431640625e-07
            ]
        },
        {
            "children" : [
                29
            ],
            "name" : "Bone.057",
            "rotation" : [
                -0.04122930020093918,
                -0.057853590697050095,
                -0.030608277767896652,
                0.9970036745071411
            ],
            "scale" : [
                0.9999998211860657,
                0.9999999403953552,
                0.9999998807907104
            ],
            "translation" : [
                -3.337860107421875e-06,
                3.2293357849121094,
                -5.364418029785156e-07
            ]
        },
        {
            "children" : [
                30
            ],
            "name" : "Bone.056",
            "rotation" : [
                -0.08422988653182983,
                0.06318787485361099,
                -0.042601995170116425,
                0.9935279488563538
            ],
            "scale" : [
                0.9999999403953552,
                1,
                0.9999999403953552
            ],
            "translation" : [
                0.5063575506210327,
                11.519675254821777,
                -1.861685872077942
            ]
        },
        {
            "name" : "Bone.061",
            "rotation" : [
                0.03312027454376221,
                0.189327210187912,
                0.02155313268303871,
                0.9811186790466309
            ],
            "scale" : [
                0.9999999403953552,
                1.0000001192092896,
                1.0000001192092896
            ],
            "translation" : [
                -2.4139881134033203e-06,
                1.5898256301879883,
                -7.152557373046875e-07
            ]
        },
        {
            "children" : [
                32
            ],
            "name" : "Bone.060",
            "rotation" : [
                0.009191568940877914,
                -0.06302303820848465,
                -0.037592992186546326,
                0.9972614645957947
            ],
            "translation" : [
                -4.172325134277344e-06,
                2.829906702041626,
                -4.76837158203125e-07
            ]
        },
        {
            "children" : [
                33
            ],
            "name" : "Bone.059",
            "rotation" : [
                -0.13243600726127625,
                0.0681324303150177,
                -0.010521386750042439,
                0.9887911677360535
            ],
            "scale" : [
                1,
                0.9999999403953552,
                0.9999998807907104
            ],
            "translation" : [
                1.0221797227859497,
                10.720829010009766,
                -4.027024269104004
            ]
        },
        {
            "children" : [
                22,
                25,
                28,
                31,
                34
            ],
            "name" : "Bone.045",
            "rotation" : [
                -1.088235239876667e-05,
                -5.6840072204522585e-08,
                -0.003154785605147481,
                0.9999951124191284
            ],
            "scale" : [
                1,
                0.9999999403953552,
                1
            ],
            "translation" : [
                -1.000240445137024e-06,
                23.257949829101562,
                2.682209014892578e-07
            ]
        },
        {
            "children" : [
                35
            ],
            "name" : "Bone.006",
            "rotation" : [
                0.040096674114465714,
                2.1369845626395545e-07,
                -0.04275014251470566,
                0.9982808828353882
            ],
            "scale" : [
                1,
                1.0000001192092896,
                0.9999999403953552
            ],
            "translation" : [
                -1.5887385416135658e-06,
                26.096086502075195,
                -4.76837158203125e-07
            ]
        },
        {
            "children" : [
                36
            ],
            "name" : "Bone.005",
            "rotation" : [
                0.018780004233121872,
                0.025676077231764793,
                -0.2562328577041626,
                0.966091513633728
            ],
            "scale" : [
                1.0000001192092896,
                1.0000001192092896,
                1.0000001192092896
            ],
            "translation" : [
                2.4235416731244186e-06,
                20.36534881591797,
                -4.76837158203125e-07
            ]
        },
        {
            "name" : "Bone.033",
            "rotation" : [
                0.02305440977215767,
                0.5615830421447754,
                -0.12026426196098328,
                0.81830894947052
            ],
            "scale" : [
                1.0000001192092896,
                0.9999999403953552,
                1
            ],
            "translation" : [
                -13.639533996582031,
                10.700993537902832,
                1.2828130722045898
            ]
        },
        {
            "children" : [
                37,
                38
            ],
            "name" : "Bone.004",
            "rotation" : [
                -0.039094239473342896,
                0.04501179978251457,
                -0.75364750623703,
                0.6545693874359131
            ],
            "scale" : [
                0.9999999403953552,
                0.9999999403953552,
                0.9999999403953552
            ],
            "translation" : [
                -1.3803778564636104e-08,
                13.853164672851562,
                8.881784197001252e-16
            ]
        },
        {
            "name" : "Bone.014",
            "rotation" : [
                -0.07050283998250961,
                2.616013262013439e-06,
                -2.017056459635569e-07,
                0.997511625289917
            ],
            "scale" : [
                1,
                0.9999999403953552,
                1
            ],
            "translation" : [
                3.761525988466019e-07,
                2.0231575965881348,
                -1.5607799291610718
            ]
        },
        {
            "children" : [
                40
            ],
            "name" : "Bone.012",
            "rotation" : [
                0.7607747316360474,
                2.1895996504101532e-14,
                1.8138284474389366e-07,
                0.6490159630775452
            ],
            "scale" : [
                1,
                1.0000001192092896,
                1
            ],
            "translation" : [
                -8.483086730848299e-07,
                1.1726123094558716,
                3.650174856185913
            ]
        },
        {
            "name" : "Bone.015",
            "rotation" : [
                -0.06449484825134277,
                1.6654231558277388e-06,
                -2.6140185127587756e-07,
                0.9979180693626404
            ],
            "scale" : [
                1,
                0.9999999403953552,
                1
            ],
            "translation" : [
                -4.637677648133831e-06,
                2.6794257164001465,
                1.9453893899917603
            ]
        },
        {
            "children" : [
                42
            ],
            "name" : "Bone.013",
            "rotation" : [
                0.7568528056144714,
                7.012154696894868e-07,
                9.924560799845494e-07,
                0.6535854339599609
            ],
            "translation" : [
                -7.971165132403257e-07,
                6.204541206359863,
                3.4354591369628906
            ]
        },
        {
            "name" : "Bone.017",
            "rotation" : [
                0.28351372480392456,
                0.00030907808104529977,
                -0.2696523070335388,
                0.9202758073806763
            ],
            "scale" : [
                0.9999998807907104,
                1,
                0.9999998807907104
            ],
            "translation" : [
                -1.0728836059570312e-06,
                3.6553568840026855,
                8.165836334228516e-06
            ]
        },
        {
            "children" : [
                44
            ],
            "name" : "Bone.016",
            "rotation" : [
                0.5745105147361755,
                0.5899317860603333,
                -0.44916966557502747,
                0.3466479480266571
            ],
            "scale" : [
                0.9999999403953552,
                0.9999997615814209,
                0.9999999403953552
            ],
            "translation" : [
                1.2699071168899536,
                12.210753440856934,
                9.816954612731934
            ]
        },
        {
            "name" : "Bone.019",
            "rotation" : [
                -0.27386870980262756,
                -0.008535565808415413,
                0.25279802083969116,
                0.9279096126556396
            ],
            "scale" : [
                1,
                1,
                1.0000001192092896
            ],
            "translation" : [
                -3.6954879760742188e-06,
                2.4813122749328613,
                -2.562999725341797e-06
            ]
        },
        {
            "children" : [
                46
            ],
            "name" : "Bone.018",
            "rotation" : [
                0.04131094738841057,
                -0.16781115531921387,
                0.738351583480835,
                0.651897132396698
            ],
            "scale" : [
                1,
                1,
                0.9999998807907104
            ],
            "translation" : [
                -1.7778757810592651,
                12.210753440856934,
                9.81695556640625
            ]
        },
        {
            "name" : "Bone.021",
            "rotation" : [
                -0.07993337512016296,
                0.033302150666713715,
                -0.19485077261924744,
                0.9770030975341797
            ],
            "scale" : [
                1,
                1.0000001192092896,
                0.9999999403953552
            ],
            "translation" : [
                1.6689300537109375e-06,
                3.8580482006073,
                -3.5762786865234375e-07
            ]
        },
        {
            "children" : [
                48
            ],
            "name" : "Bone.020",
            "rotation" : [
                0.5464979410171509,
                0.6058036088943481,
                -0.5120053887367249,
                0.2686866223812103
            ],
            "scale" : [
                0.9999998211860657,
                0.9999995827674866,
                1
            ],
            "translation" : [
                1.2699071168899536,
                8.590575218200684,
                9.971429824829102
            ]
        },
        {
            "name" : "Bone.023",
            "rotation" : [
                -0.3147583305835724,
                -0.47165364027023315,
                0.11611456423997879,
                0.8154676556587219
            ],
            "scale" : [
                0.9999998807907104,
                0.9999998211860657,
                0.9999998211860657
            ],
            "translation" : [
                -8.344650268554688e-07,
                2.8179519176483154,
                -2.0265579223632812e-06
            ]
        },
        {
            "children" : [
                50
            ],
            "name" : "Bone.022",
            "rotation" : [
                0.018166884779930115,
                -0.3064173758029938,
                0.7634945511817932,
                0.568202793598175
            ],
            "scale" : [
                0.9999999403953552,
                1,
                0.9999999403953552
            ],
            "translation" : [
                -2.18424654006958,
                8.590575218200684,
                9.971428871154785
            ]
        },
        {
            "name" : "Bone.025",
            "rotation" : [
                0.21423575282096863,
                -0.03603735566139221,
                -0.22397151589393616,
                0.950074315071106
            ],
            "scale" : [
                1,
                1.0000001192092896,
                1
            ],
            "translation" : [
                -1.4901161193847656e-06,
                2.6108765602111816,
                -5.781650543212891e-06
            ]
        },
        {
            "children" : [
                52
            ],
            "name" : "Bone.024",
            "rotation" : [
                0.5824205875396729,
                0.5779133439064026,
                -0.4763701856136322,
                0.31602850556373596
            ],
            "scale" : [
                1.0000001192092896,
                1.0000003576278687,
                1
            ],
            "translation" : [
                2.201174736022949,
                11.09311294555664,
                9.440957069396973
            ]
        },
        {
            "name" : "Bone.027",
            "rotation" : [
                -0.0877470150589943,
                0.07119537144899368,
                -0.3785286843776703,
                0.9186663031578064
            ],
            "scale" : [
                1,
                1.0000001192092896,
                1
            ],
            "translation" : [
                -5.960464477539063e-08,
                2.6108765602111816,
                -9.834766387939453e-06
            ]
        },
        {
            "children" : [
                54
            ],
            "name" : "Bone.026",
            "rotation" : [
                0.5824205875396729,
                0.5779133439064026,
                -0.4763701856136322,
                0.31602850556373596
            ],
            "scale" : [
                1.0000001192092896,
                1.0000003576278687,
                1
            ],
            "translation" : [
                2.201174736022949,
                9.71157455444336,
                9.499908447265625
            ]
        },
        {
            "name" : "Bone.029",
            "rotation" : [
                -0.21068190038204193,
                -0.1695750504732132,
                0.11782670766115189,
                0.9554969072341919
            ],
            "scale" : [
                0.9999999403953552,
                0.9999998211860657,
                0.9999999403953552
            ],
            "translation" : [
                -4.336237907409668e-06,
                1.9226977825164795,
                -4.76837158203125e-07
            ]
        },
        {
            "children" : [
                56
            ],
            "name" : "Bone.028",
            "rotation" : [
                -0.11007778346538544,
                -0.07082075625658035,
                0.7600651383399963,
                0.6365284323692322
            ],
            "translation" : [
                -1.9471981525421143,
                11.09311294555664,
                9.440956115722656
            ]
        },
        {
            "name" : "Bone.031",
            "rotation" : [
                -0.30887433886528015,
                -0.7626755833625793,
                -0.014928305521607399,
                0.5680667161941528
            ],
            "scale" : [
                0.9999998211860657,
                0.9999998211860657,
                1
            ],
            "translation" : [
                -2.9206275939941406e-06,
                1.7091670036315918,
                1.1920928955078125e-07
            ]
        },
        {
            "children" : [
                58
            ],
            "name" : "Bone.030",
            "rotation" : [
                -0.12165584415197372,
                -0.08253148198127747,
                0.7656611800193787,
                0.6262199878692627
            ],
            "scale" : [
                1.000000238418579,
                1.0000001192092896,
                1.0000001192092896
            ],
            "translation" : [
                -2.2011802196502686,
                9.71157455444336,
                9.499906539916992
            ]
        },
        {
            "mesh" : 1,
            "name" : "lib_rus_sniper.002",
            "rotation" : [
                0.7071068286895752,
                0,
                0,
                0.7071068286895752
            ],
            "translation" : [
                -3.1747190952301025,
                -171.0381317138672,
                -5.937900066375732
            ]
        },
        {
            "children" : [
                60
            ],
            "name" : "Empty",
            "rotation" : [
                -0.021320786327123642,
                -1.1914247721733773e-07,
                -1.6109428235822065e-09,
                0.9997727274894714
            ],
            "translation" : [
                3.5258214473724365,
                10.326088198681674,
                7.982326030731201
            ]
        },
        {
            "mesh" : 2,
            "name" : "lib_rus_sniper.004",
            "rotation" : [
                0.7071068286895752,
                0,
                0,
                0.7071068286895752
            ],
            "translation" : [
                3.1604323387145996,
                -171.03811645507812,
                -5.937899589538574
            ]
        },
        {
            "children" : [
                62
            ],
            "name" : "Empty.001",
            "rotation" : [
                -0.021320786327123642,
                -1.1914247721733773e-07,
                -1.6109428235822065e-09,
                0.9997727274894714
            ],
            "translation" : [
                -2.8093299865722656,
                10.326088198681674,
                7.982324123382568
            ]
        },
        {
            "children" : [
                41,
                43,
                45,
                47,
                49,
                51,
                53,
                55,
                57,
                59,
                61,
                63
            ],
            "name" : "Bone.011",
            "rotation" : [
                -0.08789853751659393,
                -1.1925547118015693e-14,
                -2.0956651525239067e-08,
                0.9961295127868652
            ],
            "scale" : [
                1,
                0.9999998807907104,
                0.9999998807907104
            ],
            "translation" : [
                -6.270170160860289e-09,
                3.107541084289551,
                -1.0371003327236394e-06
            ]
        },
        {
            "children" : [
                64
            ],
            "name" : "Bone.010",
            "rotation" : [
                0.06396087259054184,
                1.991377000093702e-14,
                1.52494621374899e-08,
                0.9979525208473206
            ],
            "translation" : [
                -2.240290086774621e-08,
                14.891807556152344,
                8.700829425833945e-07
            ]
        },
        {
            "children" : [
                65
            ],
            "name" : "Bone.009",
            "rotation" : [
                0.045314423739910126,
                1.190446283771962e-07,
                4.471532921712651e-09,
                0.9989727735519409
            ],
            "scale" : [
                1,
                1.0000001192092896,
                0.9999999403953552
            ],
            "translation" : [
                -1.3803778564636104e-08,
                13.853164672851562,
                8.881784197001252e-16
            ]
        },
        {
            "children" : [
                19,
                39,
                66
            ],
            "name" : "Bone.002",
            "rotation" : [
                -6.584286893485114e-08,
                -9.66501723098645e-09,
                -0.0080898217856884,
                0.9999672770500183
            ],
            "scale" : [
                1,
                1.0000001192092896,
                1
            ],
            "translation" : [
                -2.957486344712379e-08,
                21.701082229614258,
                -1.8574633031676058e-07
            ]
        },
        {
            "children" : [
                67
            ],
            "name" : "Bone.001",
            "rotation" : [
                6.584286893485114e-08,
                9.66501545462961e-09,
                0.0080898217856884,
                0.9999672770500183
            ],
            "translation" : [
                0,
                4.511039733886719,
                0
            ]
        },
        {
            "name" : "Bone.043",
            "rotation" : [
                3.722977837128383e-08,
                0,
                0,
                1
            ],
            "translation" : [
                15.369295120239258,
                0.8146753311157227,
                4.76837158203125e-07
            ]
        },
        {
            "name" : "Bone.044",
            "rotation" : [
                3.722977837128383e-08,
                0,
                0,
                1
            ],
            "translation" : [
                -16.373743057250977,
                0.8146753311157227,
                4.76837158203125e-07
            ]
        },
        {
            "children" : [
                68,
                69,
                70
            ],
            "name" : "Bone",
            "translation" : [
                0,
                0.5266571044921875,
                -4.499753952026367
            ]
        },
        {
            "name" : "Bone.040",
            "rotation" : [
                0.008422346785664558,
                1.9098436165876365e-09,
                -0.2207823097705841,
                0.9752867817878723
            ],
            "scale" : [
                0.9999999403953552,
                1,
                1
            ],
            "translation" : [
                1.0728836059570312e-06,
                12.090704917907715,
                -4.3213367462158203e-07
            ]
        },
        {
            "children" : [
                72
            ],
            "name" : "Bone.039",
            "rotation" : [
                -0.016661861911416054,
                6.152056641894887e-08,
                -0.5536065697669983,
                0.8326116800308228
            ],
            "translation" : [
                8.419156074523926e-07,
                40.022987365722656,
                -1.1734664440155029e-07
            ]
        },
        {
            "children" : [
                73
            ],
            "name" : "Bone.036",
            "rotation" : [
                -0.007782126311212778,
                0.0023212768137454987,
                0.06882859766483307,
                0.9975955486297607
            ],
            "scale" : [
                0.9999999403953552,
                0.9999998211860657,
                0.9999999403953552
            ],
            "translation" : [
                -1.3224780559539795e-07,
                44.469879150390625,
                -1.4419638318940997e-06
            ]
        },
        {
            "children" : [
                74
            ],
            "name" : "Bone.035",
            "rotation" : [
                0.030713705345988274,
                0.0002518043329473585,
                -0.009820736944675446,
                0.9994799494743347
            ],
            "scale" : [
                1.0000001192092896,
                1.0000001192092896,
                1.0000001192092896
            ],
            "translation" : [
                1.572672963142395,
                8.796558380126953,
                10.159059524536133
            ]
        },
        {
            "name" : "Bone.042",
            "rotation" : [
                -0.005185848101973534,
                2.2633614982225936e-09,
                -0.21198445558547974,
                0.9772592782974243
            ],
            "translation" : [
                -9.357929229736328e-06,
                11.905116081237793,
                3.8743019104003906e-07
            ]
        },
        {
            "children" : [
                76
            ],
            "name" : "Bone.041",
            "rotation" : [
                0.005391385406255722,
                8.507759829967654e-09,
                -0.55069500207901,
                0.8346891403198242
            ],
            "scale" : [
                1,
                0.9999999403953552,
                1
            ],
            "translation" : [
                4.917383193969727e-07,
                39.963619232177734,
                4.246830940246582e-07
            ]
        },
        {
            "children" : [
                77
            ],
            "name" : "Bone.038",
            "rotation" : [
                0.040150947868824005,
                -0.007379742339253426,
                0.06860779225826263,
                0.9968081116676331
            ],
            "scale" : [
                0.9999999403953552,
                1,
                1
            ],
            "translation" : [
                -3.7066638469696045e-07,
                45.34351348876953,
                -2.019573003053665e-06
            ]
        },
        {
            "children" : [
                78
            ],
            "name" : "Bone.037",
            "rotation" : [
                -0.06448157131671906,
                0.001076200045645237,
                -0.009723430499434471,
                0.9978709816932678
            ],
            "scale" : [
                1.0000001192092896,
                1,
                1.0000001192092896
            ],
            "translation" : [
                1.572500228881836,
                7.69992733001709,
                -11.212447166442871
            ]
        },
        {
            "children" : [
                75,
                79
            ],
            "name" : "Bone.034",
            "rotation" : [
                0.7070834040641785,
                0.006095044314861298,
                0.7070776224136353,
                -0.006095091346651316
            ],
            "scale" : [
                0.9999999403953552,
                1,
                1
            ],
            "translation" : [
                0,
                0.5266571044921875,
                -4.499753952026367
            ]
        },
        {
            "mesh" : 0,
            "name" : "lib_rus_sniper",
            "skin" : 0
        },
        {
            "mesh" : 3,
            "name" : "lib_rus_sniper.001",
            "skin" : 0
        },
        {
            "mesh" : 4,
            "name" : "lib_rus_sniper.003",
            "skin" : 0
        },
        {
            "children" : [
                81,
                82,
                83,
                71,
                80
            ],
            "name" : "Armature",
            "translation" : [
                0,
                102.6083984375,
                0
            ]
        }
    ],
    "materials" : [
        {
            "doubleSided" : true,
            "emissiveFactor" : [
                0,
                0,
                0
            ],
            "name" : "Material.001",
            "pbrMetallicRoughness" : {
                "baseColorTexture" : {
                    "index" : 0,
                    "texCoord" : 0
                },
                "metallicFactor" : 0,
                "roughnessFactor" : 0.5
            }
        },
        {
            "doubleSided" : true,
            "emissiveFactor" : [
                0,
                0,
                0
            ],
            "name" : "Default OBJ",
            "pbrMetallicRoughness" : {
                "baseColorTexture" : {
                    "index" : 1,
                    "texCoord" : 0
                },
                "metallicFactor" : 0,
                "roughnessFactor" : 0.5
            }
        },
        {
            "doubleSided" : true,
            "emissiveFactor" : [
                0,
                0,
                0
            ],
            "name" : "Material.002",
            "pbrMetallicRoughness" : {
                "baseColorTexture" : {
                    "index" : 2,
                    "texCoord" : 0
                },
                "metallicFactor" : 0,
                "roughnessFactor" : 0.5
            }
        }
    ],
    "meshes" : [
        {
            "name" : "lib_rus_sniper",
            "primitives" : [
                {
                    "attributes" : {
                        "POSITION" : 0,
                        "NORMAL" : 1,
                        "TEXCOORD_0" : 2,
                        "JOINTS_0" : 3,
                        "WEIGHTS_0" : 4
                    },
                    "indices" : 5,
                    "material" : 0
                }
            ]
        },
        {
            "name" : "lib_rus_sniper.002",
            "primitives" : [
                {
                    "attributes" : {
                        "POSITION" : 7,
                        "NORMAL" : 8,
                        "TEXCOORD_0" : 9
                    },
                    "indices" : 10,
                    "material" : 1
                }
            ]
        },
        {
            "name" : "lib_rus_sniper.004",
            "primitives" : [
                {
                    "attributes" : {
                        "POSITION" : 11,
                        "NORMAL" : 12,
                        "TEXCOORD_0" : 13
                    },
                    "indices" : 10,
                    "material" : 1
                }
            ]
        },
        {
            "name" : "lib_rus_sniper.001",
            "primitives" : [
                {
                    "attributes" : {
                        "POSITION" : 14,
                        "NORMAL" : 15,
                        "TEXCOORD_0" : 16,
                        "JOINTS_0" : 17,
                        "WEIGHTS_0" : 18
                    },
                    "indices" : 19,
                    "material" : 1
                }
            ]
        },
        {
            "name" : "lib_rus_sniper.003",
            "primitives" : [
                {
                    "attributes" : {
                        "POSITION" : 20,
                        "NORMAL" : 21,
                        "TEXCOORD_0" : 22,
                        "JOINTS_0" : 23,
                        "WEIGHTS_0" : 24
                    },
                    "indices" : 25,
                    "material" : 2
                }
            ]
        }
    ],
    "textures" : [
        {
            "source" : 0
        },
        {
            "source" : 1
        },
        {
            "source" : 2
        }
    ],
    "images" : [
        {
            "mimeType" : "image/png",
            "name" : "sov_sniper_co",
            "uri" : "sov_sniper_co.png"
        },
        {
            "mimeType" : "image/png",
            "name" : "hhl_76_co",
            "uri" : "hhl_76_co.png"
        },
        {
            "mimeType" : "image/png",
            "name" : "mouth_co",
            "uri" : "mouth_co.png"
        }
    ],
    "skins" : [
        {
            "inverseBindMatrices" : 6,
            "joints" : [
                71,
                68,
                67,
                19,
                17,
                16,
                15,
                2,
                1,
                0,
                5,
                4,
                3,
                8,
                7,
                6,
                11,
                10,
                9,
                14,
                13,
                12,
                18,
                39,
                37,
                36,
                35,
                22,
                21,
                20,
                25,
                24,
                23,
                28,
                27,
                26,
                31,
                30,
                29,
                34,
                33,
                32,
                38,
                66,
                65,
                64,
                41,
                40,
                43,
                42,
                45,
                44,
                47,
                46,
                49,
                48,
                51,
                50,
                53,
                52,
                55,
                54,
                57,
                56,
                59,
                58,
                69,
                70,
                80,
                75,
                74,
                73,
                72,
                79,
                78,
                77,
                76
            ],
            "name" : "Armature"
        }
    ],
    "accessors" : [
        {
            "bufferView" : 0,
            "componentType" : 5126,
            "count" : 3005,
            "max" : [
                61.04993438720703,
                182.4623260498047,
                15.616619110107422
            ],
            "min" : [
                -60.7810173034668,
                0.013428139500319958,
                -20.612201690673828
            ],
            "type" : "VEC3"
        },
        {
            "bufferView" : 1,
            "componentType" : 5126,
            "count" : 3005,
            "type" : "VEC3"
        },
        {
            "bufferView" : 2,
            "componentType" : 5126,
            "count" : 3005,
            "type" : "VEC2"
        },
        {
            "bufferView" : 3,
            "componentType" : 5123,
            "count" : 3005,
            "type" : "VEC4"
        },
        {
            "bufferView" : 4,
            "componentType" : 5126,
            "count" : 3005,
            "type" : "VEC4"
        },
        {
            "bufferView" : 5,
            "componentType" : 5123,
            "count" : 14976,
            "type" : "SCALAR"
        },
        {
            "bufferView" : 6,
            "componentType" : 5126,
            "count" : 77,
            "type" : "MAT4"
        },
        {
            "bufferView" : 7,
            "componentType" : 5126,
            "count" : 273,
            "max" : [
                4.598352432250977,
                7.278697967529297,
                -169.63693237304688
            ],
            "min" : [
                1.845491647720337,
                4.589027404785156,
                -172.3995361328125
            ],
            "type" : "VEC3"
        },
        {
            "bufferView" : 8,
            "componentType" : 5126,
            "count" : 273,
            "type" : "VEC3"
        },
        {
            "bufferView" : 9,
            "componentType" : 5126,
            "count" : 273,
            "type" : "VEC2"
        },
        {
            "bufferView" : 10,
            "componentType" : 5123,
            "count" : 1440,
            "type" : "SCALAR"
        },
        {
            "bufferView" : 11,
            "componentType" : 5126,
            "count" : 273,
            "max" : [
                -1.8379391431808472,
                7.278697967529297,
                -169.63693237304688
            ],
            "min" : [
                -4.590799331665039,
                4.589027404785156,
                -172.3995361328125
            ],
            "type" : "VEC3"
        },
        {
            "bufferView" : 12,
            "componentType" : 5126,
            "count" : 273,
            "type" : "VEC3"
        },
        {
            "bufferView" : 13,
            "componentType" : 5126,
            "count" : 273,
            "type" : "VEC2"
        },
        {
            "bufferView" : 14,
            "componentType" : 5126,
            "count" : 2372,
            "max" : [
                72.313232421875,
                182.20213317871094,
                10.954801559448242
            ],
            "min" : [
                -72.71907043457031,
                93.14522552490234,
                -15.123344421386719
            ],
            "type" : "VEC3"
        },
        {
            "bufferView" : 15,
            "componentType" : 5126,
            "count" : 2372,
            "type" : "VEC3"
        },
        {
            "bufferView" : 16,
            "componentType" : 5126,
            "count" : 2372,
            "type" : "VEC2"
        },
        {
            "bufferView" : 17,
            "componentType" : 5123,
            "count" : 2372,
            "type" : "VEC4"
        },
        {
            "bufferView" : 18,
            "componentType" : 5126,
            "count" : 2372,
            "type" : "VEC4"
        },
        {
            "bufferView" : 19,
            "componentType" : 5123,
            "count" : 12234,
            "type" : "SCALAR"
        },
        {
            "bufferView" : 20,
            "componentType" : 5126,
            "count" : 357,
            "max" : [
                3.6875717639923096,
                165.7473907470703,
                8.50043773651123
            ],
            "min" : [
                -3.7502787113189697,
                162.10401916503906,
                3.0252013206481934
            ],
            "type" : "VEC3"
        },
        {
            "bufferView" : 21,
            "componentType" : 5126,
            "count" : 357,
            "type" : "VEC3"
        },
        {
            "bufferView" : 22,
            "componentType" : 5126,
            "count" : 357,
            "type" : "VEC2"
        },
        {
            "bufferView" : 23,
            "componentType" : 5123,
            "count" : 357,
            "type" : "VEC4"
        },
        {
            "bufferView" : 24,
            "componentType" : 5126,
            "count" : 357,
            "type" : "VEC4"
        },
        {
            "bufferView" : 25,
            "componentType" : 5123,
            "count" : 1302,
            "type" : "SCALAR"
        }
    ],
    "bufferViews" : [
        {
            "buffer" : 0,
            "byteLength" : 36060,
            "byteOffset" : 0
        },
        {
            "buffer" : 0,
            "byteLength" : 36060,
            "byteOffset" : 36060
        },
        {
            "buffer" : 0,
            "byteLength" : 24040,
            "byteOffset" : 72120
        },
        {
            "buffer" : 0,
            "byteLength" : 24040,
            "byteOffset" : 96160
        },
        {
            "buffer" : 0,
            "byteLength" : 48080,
            "byteOffset" : 120200
        },
        {
            "buffer" : 0,
            "byteLength" : 29952,
            "byteOffset" : 168280
        },
        {
            "buffer" : 0,
            "byteLength" : 4928,
            "byteOffset" : 198232
        },
        {
            "buffer" : 0,
            "byteLength" : 3276,
            "byteOffset" : 203160
        },
        {
            "buffer" : 0,
            "byteLength" : 3276,
            "byteOffset" : 206436
        },
        {
            "buffer" : 0,
            "byteLength" : 2184,
            "byteOffset" : 209712
        },
        {
            "buffer" : 0,
            "byteLength" : 2880,
            "byteOffset" : 211896
        },
        {
            "buffer" : 0,
            "byteLength" : 3276,
            "byteOffset" : 214776
        },
        {
            "buffer" : 0,
            "byteLength" : 3276,
            "byteOffset" : 218052
        },
        {
            "buffer" : 0,
            "byteLength" : 2184,
            "byteOffset" : 221328
        },
        {
            "buffer" : 0,
            "byteLength" : 28464,
            "byteOffset" : 223512
        },
        {
            "buffer" : 0,
            "byteLength" : 28464,
            "byteOffset" : 251976
        },
        {
            "buffer" : 0,
            "byteLength" : 18976,
            "byteOffset" : 280440
        },
        {
            "buffer" : 0,
            "byteLength" : 18976,
            "byteOffset" : 299416
        },
        {
            "buffer" : 0,
            "byteLength" : 37952,
            "byteOffset" : 318392
        },
        {
            "buffer" : 0,
            "byteLength" : 24468,
            "byteOffset" : 356344
        },
        {
            "buffer" : 0,
            "byteLength" : 4284,
            "byteOffset" : 380812
        },
        {
            "buffer" : 0,
            "byteLength" : 4284,
            "byteOffset" : 385096
        },
        {
            "buffer" : 0,
            "byteLength" : 2856,
            "byteOffset" : 389380
        },
        {
            "buffer" : 0,
            "byteLength" : 2856,
            "byteOffset" : 392236
        },
        {
            "buffer" : 0,
            "byteLength" : 5712,
            "byteOffset" : 395092
        },
        {
            "buffer" : 0,
            "byteLength" : 2604,
            "byteOffset" : 400804
        }
    ],
    "buffers" : [
        {
            "byteLength" : 403408,
            "uri" : "sniper.bin"
        }
    ]
}
